<?xml version="1.0" encoding="us-ascii" standalone="no"?><svg xmlns="http://www.w3.org/2000/svg" xmlns:xlink="http://www.w3.org/1999/xlink" contentStyleType="text/css" height="458px" preserveAspectRatio="none" style="width:377px;height:458px;background:#FFFFFF;" version="1.1" viewBox="0 0 377 458" width="377px" zoomAndPan="magnify"><defs/><g><!--cluster stbl--><g id="cluster_stbl"><path d="M6,240.83 C6,230.83 177.5,230.83 177.5,230.83 C177.5,230.83 349,230.83 349,240.83 L349,323.12 C349,333.12 177.5,333.12 177.5,333.12 C177.5,333.12 6,333.12 6,323.12 L6,240.83 " fill="none" style="stroke:#181818;stroke-width:1.0;"/><path d="M6,240.83 C6,250.83 177.5,250.83 177.5,250.83 C177.5,250.83 349,250.83 349,240.83 " fill="none" style="stroke:#181818;stroke-width:1.0;"/><text fill="#000000" font-family="sans-serif" font-size="14" font-weight="bold" lengthAdjust="spacing" textLength="155" x="100" y="265.8251">Suchindex-Tabellen</text></g><!--entity geo--><g id="elem_geo"><rect fill="#F1F1F1" height="36.2969" rx="2.5" ry="2.5" style="stroke:#181818;stroke-width:0.5;" width="136" x="197" y="280.83"/><text fill="#000000" font-family="sans-serif" font-size="14" lengthAdjust="spacing" textLength="116" x="207" y="303.8251">Geo Indextabelle</text></g><!--entity meta--><g id="elem_meta"><rect fill="#F1F1F1" height="36.2969" rx="2.5" ry="2.5" style="stroke:#181818;stroke-width:0.5;" width="141" x="21.5" y="280.83"/><text fill="#000000" font-family="sans-serif" font-size="14" lengthAdjust="spacing" textLength="121" x="31.5" y="303.8251">Meta Indextabelle</text></g><!--entity gtbl--><g id="elem_gtbl"><path d="M208.5,406.12 C208.5,396.12 265,396.12 265,396.12 C265,396.12 321.5,396.12 321.5,406.12 L321.5,431.4169 C321.5,441.4169 265,441.4169 265,441.4169 C265,441.4169 208.5,441.4169 208.5,431.4169 L208.5,406.12 " fill="#F1F1F1" style="stroke:#181818;stroke-width:0.5;"/><path d="M208.5,406.12 C208.5,416.12 265,416.12 265,416.12 C265,416.12 321.5,416.12 321.5,406.12 " fill="none" style="stroke:#181818;stroke-width:0.5;"/><text fill="#000000" font-family="sans-serif" font-size="14" lengthAdjust="spacing" textLength="93" x="218.5" y="433.1151">Geo-Tabellen</text></g><!--entity mtbl--><g id="elem_mtbl"><path d="M33,406.12 C33,396.12 92,396.12 92,396.12 C92,396.12 151,396.12 151,406.12 L151,431.4169 C151,441.4169 92,441.4169 92,441.4169 C92,441.4169 33,441.4169 33,431.4169 L33,406.12 " fill="#F1F1F1" style="stroke:#181818;stroke-width:0.5;"/><path d="M33,406.12 C33,416.12 92,416.12 92,416.12 C92,416.12 151,416.12 151,406.12 " fill="none" style="stroke:#181818;stroke-width:0.5;"/><text fill="#000000" font-family="sans-serif" font-size="14" lengthAdjust="spacing" textLength="98" x="43" y="433.1151">Meta-Tabellen</text></g><!--entity c--><g id="elem_c"><rect fill="#F1F1F1" height="46.2969" rx="2.5" ry="2.5" style="stroke:#181818;stroke-width:0.5;" width="87" x="134.5" y="18.12"/><rect fill="#F1F1F1" height="10" style="stroke:#181818;stroke-width:0.5;" width="15" x="201.5" y="23.12"/><rect fill="#F1F1F1" height="2" style="stroke:#181818;stroke-width:0.5;" width="4" x="199.5" y="25.12"/><rect fill="#F1F1F1" height="2" style="stroke:#181818;stroke-width:0.5;" width="4" x="199.5" y="29.12"/><text fill="#000000" font-family="sans-serif" font-size="14" lengthAdjust="spacing" textLength="47" x="149.5" y="51.1151">Clients</text></g><g id="elem_GMN3"><path d="M256,6 L256,37.26 L221.77,41.26 L256,45.26 L256,76.5313 A0,0 0 0 0 256,76.5313 L370,76.5313 A0,0 0 0 0 370,76.5313 L370,16 L360,6 L256,6 A0,0 0 0 0 256,6 " fill="#FEFFDD" style="stroke:#181818;stroke-width:0.5;"/><path d="M360,6 L360,16 L370,16 L360,6 " fill="#FEFFDD" style="stroke:#181818;stroke-width:0.5;"/><text fill="#000000" font-family="sans-serif" font-size="13" lengthAdjust="spacing" textLength="93" x="262" y="23.0669">Web GIS Client</text><text fill="#000000" font-family="sans-serif" font-size="13" lengthAdjust="spacing" textLength="72" x="262" y="38.1997">SO-Locator</text><text fill="#000000" font-family="sans-serif" font-size="13" lengthAdjust="spacing" textLength="49" x="262" y="53.3325">SO-Bau</text><text fill="#000000" font-family="sans-serif" font-size="13" lengthAdjust="spacing" textLength="12" x="262" y="68.4653">...</text></g><!--entity s--><g id="elem_s"><rect fill="#F1F1F1" height="46.2969" rx="2.5" ry="2.5" style="stroke:#181818;stroke-width:0.5;" width="130" x="113" y="137.53"/><rect fill="#F1F1F1" height="10" style="stroke:#181818;stroke-width:0.5;" width="15" x="223" y="142.53"/><rect fill="#F1F1F1" height="2" style="stroke:#181818;stroke-width:0.5;" width="4" x="221" y="144.53"/><rect fill="#F1F1F1" height="2" style="stroke:#181818;stroke-width:0.5;" width="4" x="221" y="148.53"/><text fill="#000000" font-family="sans-serif" font-size="14" lengthAdjust="spacing" textLength="90" x="128" y="170.5251">Such-Service</text></g><!--link c to s--><g id="link_c_s"><path d="M178,64.9 C178,83.83 178,110.91 178,131.29 " fill="none" id="c-to-s" style="stroke:#181818;stroke-width:1.0;"/><polygon fill="#181818" points="178,136.11,182,127.11,178,131.11,174,127.11,178,136.11" style="stroke:#181818;stroke-width:1.0;"/></g><!--link s to geo--><g id="link_s_geo"><path d="M192.37,184.18 C208.56,209.56 234.74,250.56 250.85,275.8 " fill="none" id="s-to-geo" style="stroke:#181818;stroke-width:1.0;"/><polygon fill="#181818" points="253.93,279.63,252.4429,269.8941,251.2327,275.4199,245.7068,274.2097,253.93,279.63" style="stroke:#181818;stroke-width:1.0;"/></g><!--link s to meta--><g id="link_s_meta"><path d="M163.8,184.18 C147.79,209.56 121.91,250.56 105.99,275.8 " fill="none" id="s-to-meta" style="stroke:#181818;stroke-width:1.0;"/><polygon fill="#181818" points="102.94,279.63,111.1286,274.1576,105.6105,275.4029,104.3652,269.8848,102.94,279.63" style="stroke:#181818;stroke-width:1.0;"/></g><!--reverse link geo to gtbl--><g id="link_geo_gtbl"><path d="M265,323.57 C265,344.7 265,375.45 265,396 " fill="none" id="geo-backto-gtbl" style="stroke:#181818;stroke-width:1.0;"/><polygon fill="#181818" points="265,318.61,261,327.61,265,323.61,269,327.61,265,318.61" style="stroke:#181818;stroke-width:1.0;"/><text fill="#000000" font-family="sans-serif" font-size="13" lengthAdjust="spacing" textLength="40" x="266" y="362.1869">GRETL</text></g><!--reverse link meta to mtbl--><g id="link_meta_mtbl"><path d="M92,323.57 C92,344.7 92,375.45 92,396 " fill="none" id="meta-backto-mtbl" style="stroke:#181818;stroke-width:1.0;"/><polygon fill="#181818" points="92,318.61,88,327.61,92,323.61,96,327.61,92,318.61" style="stroke:#181818;stroke-width:1.0;"/><text fill="#000000" font-family="sans-serif" font-size="13" lengthAdjust="spacing" textLength="40" x="93" y="362.1869">GRETL</text></g><!--SRC=[PO_DQiCm48Jl-nHBxl83v913GZ66X41iwC7qi9ONno1BmLgNGEcxLpyqYSbjTlRR6Qazc96j-2yaZnh0Ec6Sn-4gWFZ97PPLZPa9HdrMHwT9t9o7FIr154K1R7kCjm1jlUYhgdd-7ZMdM0_Gar17dd4JjwFj-QuQwjWOjfl4I6Vm9uJDh8NiO09QiiCgefB910xirjI9XTwnARZm-reSqjQLGwvSGJ5iJKqFIgDIk_WPdqHyI5Qf2rASMcvvXLiiBn_D4QQd7Rb__my0]--></g></svg>